<svg xmlns="http://www.w3.org/2000/svg" xmlns:xlink="http://www.w3.org/1999/xlink" width="500" zoomAndPan="magnify" viewBox="0 0 375 374.999991" height="500" preserveAspectRatio="xMidYMid meet" version="1.0"><defs><g/></defs><rect x="-37.5" width="450" fill="#ffffff" y="-37.499999" height="449.999989" fill-opacity="1"/><rect x="-37.5" width="450" fill="#fdfefe" y="-37.499999" height="449.999989" fill-opacity="1"/><path stroke-linecap="butt" transform="matrix(0.493957, 0, 0, 0.493957, 43.32909, 105.249075)" fill="none" stroke-linejoin="miter" d="M 192.227713 133.387499 C 191.081041 133.387499 189.918553 133.371683 188.748156 133.324235 C 187.601484 133.284694 186.494353 133.213521 185.43467 133.126532 L 149.618965 133.126532 C 151.936033 132.786485 154.071215 132.058941 156.024511 130.95181 C 157.9699 129.828862 159.654321 128.247246 161.06196 126.20696 L 161.06196 43.006025 C 159.654321 40.973648 157.9699 39.39994 156.024511 38.292808 C 154.071215 37.193585 151.936033 36.450225 149.618965 36.086453 L 185.956603 36.086453 C 186.842308 35.999464 187.728014 35.952016 188.621627 35.952016 C 189.507332 35.952016 190.393037 35.952016 191.286651 35.952016 C 196.529709 35.952016 202.033735 36.608387 207.790819 37.905312 C 213.555811 39.186422 219.020296 41.50349 224.176365 44.856517 C 227.988061 47.355471 231.159202 50.645233 233.697697 54.74162 C 236.228283 58.814282 238.118315 63.361429 239.351976 68.39097 C 240.585636 73.396786 241.202467 78.560764 241.202467 83.890811 C 241.202467 89.118054 240.609361 94.258307 239.41524 99.327388 C 238.22112 104.380653 236.425985 109.038513 234.021928 113.308878 C 231.617871 117.555518 228.644432 121.050891 225.117427 123.802903 C 220.412118 127.440621 215.129519 129.955391 209.253814 131.339306 C 203.409741 132.707404 197.731738 133.387499 192.227713 133.387499 Z M 183.291579 117.563426 C 184.287998 117.563426 185.292324 117.539702 186.312467 117.500162 C 187.33261 117.452713 188.329028 117.389448 189.301722 117.30246 C 196.300375 116.416754 202.041643 114.423918 206.525526 111.323949 C 211.009408 108.200257 214.314987 104.420193 216.442261 99.983759 C 218.585351 95.539417 219.652942 90.921097 219.652942 86.136707 C 219.652942 81.890067 218.854226 77.682967 217.248885 73.523315 C 215.651453 69.33994 213.342293 65.583601 210.329313 62.24639 C 207.316334 58.909179 203.631167 56.244155 199.281722 54.251319 C 194.924369 52.258482 189.950185 51.262063 184.359171 51.262063 L 183.291579 51.262063 Z M 340.259107 133.126532 L 291.513687 133.000003 C 294.004733 131.679353 295.689155 130.018656 296.582768 128.025819 C 297.468473 126.009258 297.911326 123.85826 297.911326 121.557008 C 297.911326 119.413918 297.642451 117.239195 297.104701 115.024932 C 296.582768 112.818577 296.092467 110.683395 295.641706 108.627293 L 258.782134 108.627293 C 258.521167 109.599987 258.125763 111.292317 257.580106 113.696374 C 257.042356 116.100431 256.544147 118.654742 256.085478 121.367214 C 255.650533 124.071778 255.437015 126.491651 255.437015 128.611017 C 255.437015 129.844678 255.547728 130.888545 255.761247 131.73471 C 255.998489 132.580875 256.433434 133.000003 257.058172 133.000003 L 228.81841 133.000003 C 229.878093 132.913014 231.341088 131.513284 233.207396 128.808719 C 235.065795 126.096247 237.200977 122.482254 239.605034 117.950922 C 242.016999 113.427499 244.492229 108.318878 247.054448 102.648783 C 249.632483 96.97078 252.107713 91.118799 254.495953 85.09284 C 256.90001 79.051065 259.051009 73.143727 260.956857 67.378735 C 262.870613 61.597927 264.396873 56.331144 265.543545 51.586295 C 266.713941 46.841445 267.299139 42.966485 267.299139 39.953506 C 267.299139 39.0678 267.25169 38.261176 267.164701 37.549449 C 267.077713 36.829813 266.895827 36.260431 266.619044 35.825487 C 266.895827 35.738498 267.591738 35.540796 268.698869 35.240288 C 269.798093 34.916057 271.197823 34.749987 272.890153 34.749987 C 274.835541 34.749987 277.049804 35.177024 279.517126 36.023189 C 282.008172 36.861445 284.649472 38.443062 287.448933 40.768038 C 290.26421 43.061382 293.095304 46.517214 295.934305 51.135534 C 297.705716 54.053617 299.682736 57.889036 301.849551 62.633886 C 304.016365 67.378735 306.309709 72.645518 308.737491 78.434235 C 311.181088 84.199227 313.719583 90.011667 316.337158 95.887372 C 318.962641 101.731445 321.627665 107.259195 324.332229 112.462713 C 327.044701 117.634599 329.733449 122.071033 332.398473 125.7562 C 335.063497 129.433458 337.681072 131.892872 340.259107 133.126532 Z M 292.193782 95.721303 C 290.153497 89.418561 287.939234 83.100003 285.527269 76.773537 C 283.146936 70.423347 280.798236 64.14433 278.481167 57.928577 C 277.239598 60.846659 275.784511 64.405296 274.092182 68.588672 C 272.399852 72.748323 270.644258 77.176849 268.825399 81.87425 C 267.00654 86.579559 265.250945 91.19788 263.558616 95.721303 Z M 397.632245 126.080431 C 399.039884 128.199797 400.692673 129.805138 402.598521 130.888545 C 404.504369 131.948228 406.623735 132.652048 408.940803 133.000003 C 401.396492 133.000003 393.867998 133.000003 386.347411 133.000003 C 378.850549 133.000003 371.337871 133.000003 363.79356 133.000003 C 366.197617 132.652048 368.356524 131.948228 370.262372 130.888545 C 372.16822 129.805138 373.828917 128.199797 375.236556 126.080431 C 375.236556 120.402428 375.236556 114.7007 375.236556 108.983157 C 375.236556 103.241889 375.236556 97.532254 375.236556 91.85425 C 373.457237 89.015249 371.235066 85.330082 368.570042 80.806659 C 365.928743 76.275328 363.002752 71.467214 359.799979 66.374409 C 356.613022 61.25788 353.244178 56.394409 349.693449 51.783997 C 346.134812 47.165677 342.520819 43.290716 338.835652 40.151208 C 335.150486 37.003791 331.536492 35.161208 327.977855 34.623458 C 334.201516 34.623458 340.409361 34.623458 346.601389 34.623458 C 352.82505 34.623458 359.040803 34.623458 365.256556 34.623458 L 387.881579 77.880669 L 405.848743 39.692539 C 404.528093 38.174187 403.025557 37.019607 401.333228 36.212983 C 399.640898 35.414266 397.822039 34.884425 395.876651 34.623458 L 427.429899 34.623458 L 397.632245 91.85425 Z M 397.632245 126.080431 " stroke="#100a09" stroke-width="10.64976" stroke-opacity="1" stroke-miterlimit="4"/><g fill="#f7f7f7" fill-opacity="1"><g transform="translate(120.525255, 170.945311)"><g><path d="M 17.75 0.203125 C 17.175781 0.203125 16.601562 0.1875 16.03125 0.15625 C 15.46875 0.132812 14.925781 0.101562 14.40625 0.0625 L -3.28125 0.0625 C -2.144531 -0.113281 -1.09375 -0.472656 -0.125 -1.015625 C 0.832031 -1.566406 1.660156 -2.347656 2.359375 -3.359375 L 2.359375 -44.453125 C 1.660156 -45.453125 0.832031 -46.226562 -0.125 -46.78125 C -1.09375 -47.332031 -2.144531 -47.691406 -3.28125 -47.859375 L 14.65625 -47.859375 C 15.09375 -47.910156 15.53125 -47.9375 15.96875 -47.9375 C 16.414062 -47.9375 16.859375 -47.9375 17.296875 -47.9375 C 19.878906 -47.9375 22.59375 -47.617188 25.4375 -46.984375 C 28.289062 -46.347656 30.988281 -45.195312 33.53125 -43.53125 C 35.414062 -42.300781 36.984375 -40.675781 38.234375 -38.65625 C 39.484375 -36.644531 40.414062 -34.398438 41.03125 -31.921875 C 41.644531 -29.441406 41.953125 -26.890625 41.953125 -24.265625 C 41.953125 -21.671875 41.65625 -19.125 41.0625 -16.625 C 40.46875 -14.132812 39.578125 -11.835938 38.390625 -9.734375 C 37.210938 -7.628906 35.75 -5.894531 34 -4.53125 C 31.675781 -2.738281 29.066406 -1.5 26.171875 -0.8125 C 23.273438 -0.132812 20.46875 0.203125 17.75 0.203125 Z M 13.34375 -7.625 C 13.832031 -7.625 14.328125 -7.632812 14.828125 -7.65625 C 15.328125 -7.675781 15.820312 -7.710938 16.3125 -7.765625 C 19.769531 -8.203125 22.601562 -9.1875 24.8125 -10.71875 C 27.03125 -12.25 28.664062 -14.109375 29.71875 -16.296875 C 30.769531 -18.492188 31.296875 -20.773438 31.296875 -23.140625 C 31.296875 -25.242188 30.898438 -27.328125 30.109375 -29.390625 C 29.328125 -31.453125 28.1875 -33.300781 26.6875 -34.9375 C 25.195312 -36.582031 23.378906 -37.898438 21.234375 -38.890625 C 19.085938 -39.878906 16.632812 -40.375 13.875 -40.375 L 13.34375 -40.375 Z M 13.34375 -7.625 "/></g></g></g><g fill="#f7f7f7" fill-opacity="1"><g transform="translate(159.646381, 170.945311)"><g><path d="M 51.75 0.0625 L 27.6875 0 C 28.90625 -0.65625 29.734375 -1.472656 30.171875 -2.453125 C 30.617188 -3.441406 30.84375 -4.507812 30.84375 -5.65625 C 30.84375 -6.707031 30.707031 -7.78125 30.4375 -8.875 C 30.175781 -9.96875 29.9375 -11.019531 29.71875 -12.03125 L 11.5 -12.03125 C 11.375 -11.550781 11.175781 -10.71875 10.90625 -9.53125 C 10.644531 -8.351562 10.40625 -7.09375 10.1875 -5.75 C 9.96875 -4.414062 9.859375 -3.222656 9.859375 -2.171875 C 9.859375 -1.554688 9.910156 -1.039062 10.015625 -0.625 C 10.128906 -0.207031 10.34375 0 10.65625 0 L -3.28125 0 C -2.757812 -0.0390625 -2.035156 -0.726562 -1.109375 -2.0625 C -0.191406 -3.40625 0.851562 -5.191406 2.03125 -7.421875 C 3.21875 -9.660156 4.445312 -12.179688 5.71875 -14.984375 C 6.988281 -17.796875 8.210938 -20.691406 9.390625 -23.671875 C 10.578125 -26.648438 11.640625 -29.5625 12.578125 -32.40625 C 13.523438 -35.257812 14.285156 -37.859375 14.859375 -40.203125 C 15.429688 -42.546875 15.71875 -44.460938 15.71875 -45.953125 C 15.71875 -46.390625 15.691406 -46.785156 15.640625 -47.140625 C 15.597656 -47.492188 15.515625 -47.78125 15.390625 -48 C 15.515625 -48.039062 15.847656 -48.132812 16.390625 -48.28125 C 16.941406 -48.4375 17.632812 -48.515625 18.46875 -48.515625 C 19.4375 -48.515625 20.535156 -48.304688 21.765625 -47.890625 C 22.992188 -47.484375 24.296875 -46.707031 25.671875 -45.5625 C 27.054688 -44.425781 28.445312 -42.71875 29.84375 -40.4375 C 30.726562 -38.988281 31.707031 -37.09375 32.78125 -34.75 C 33.851562 -32.40625 34.988281 -29.804688 36.1875 -26.953125 C 37.394531 -24.109375 38.644531 -21.238281 39.9375 -18.34375 C 41.226562 -15.445312 42.539062 -12.71875 43.875 -10.15625 C 45.21875 -7.59375 46.546875 -5.398438 47.859375 -3.578125 C 49.179688 -1.765625 50.476562 -0.550781 51.75 0.0625 Z M 28.015625 -18.40625 C 27.003906 -21.519531 25.90625 -24.644531 24.71875 -27.78125 C 23.539062 -30.914062 22.378906 -34.015625 21.234375 -37.078125 C 20.617188 -35.628906 19.894531 -33.875 19.0625 -31.8125 C 18.226562 -29.757812 17.363281 -27.570312 16.46875 -25.25 C 15.570312 -22.925781 14.707031 -20.644531 13.875 -18.40625 Z M 28.015625 -18.40625 "/></g></g></g><g fill="#f7f7f7" fill-opacity="1"><g transform="translate(208.564295, 170.945311)"><g><path d="M 31.171875 -3.421875 C 31.867188 -2.367188 32.6875 -1.578125 33.625 -1.046875 C 34.570312 -0.523438 35.613281 -0.175781 36.75 0 C 33.03125 0 29.316406 0 25.609375 0 C 21.898438 0 18.1875 0 14.46875 0 C 15.644531 -0.175781 16.703125 -0.523438 17.640625 -1.046875 C 18.585938 -1.578125 19.414062 -2.367188 20.125 -3.421875 C 20.125 -6.222656 20.125 -9.035156 20.125 -11.859375 C 20.125 -14.691406 20.125 -17.507812 20.125 -20.3125 C 19.238281 -21.71875 18.140625 -23.535156 16.828125 -25.765625 C 15.515625 -28.003906 14.066406 -30.382812 12.484375 -32.90625 C 10.910156 -35.425781 9.242188 -37.828125 7.484375 -40.109375 C 5.734375 -42.390625 3.945312 -44.304688 2.125 -45.859375 C 0.3125 -47.410156 -1.46875 -48.320312 -3.21875 -48.59375 C -0.15625 -48.59375 2.90625 -48.59375 5.96875 -48.59375 C 9.039062 -48.59375 12.113281 -48.59375 15.1875 -48.59375 L 26.359375 -27.21875 L 35.234375 -46.09375 C 34.578125 -46.832031 33.832031 -47.398438 33 -47.796875 C 32.164062 -48.191406 31.269531 -48.457031 30.3125 -48.59375 L 45.890625 -48.59375 L 31.171875 -20.3125 Z M 31.171875 -3.421875 "/></g></g></g><g fill="#000000" fill-opacity="1"><g transform="translate(112.56624, 228.216415)"><g><path d="M 16.15625 0.28125 L 0.390625 -39.015625 L 12.421875 -39.015625 L 21.296875 -14.328125 L 30.203125 -39.015625 L 42.03125 -39.015625 L 26.1875 0.28125 Z M 16.15625 0.28125 "/></g></g></g><g fill="#000000" fill-opacity="1"><g transform="translate(154.923017, 228.216415)"><g><path d="M 3.734375 0 L 3.734375 -39.015625 L 14.546875 -39.015625 L 14.546875 0 Z M 3.734375 0 "/></g></g></g><g fill="#000000" fill-opacity="1"><g transform="translate(173.147575, 228.216415)"><g><path d="M 3.453125 0 L 3.453125 -39.015625 L 23.46875 -39.015625 C 25.914062 -39.015625 28.007812 -38.71875 29.75 -38.125 C 31.5 -37.53125 32.953125 -36.675781 34.109375 -35.5625 C 34.890625 -34.738281 35.503906 -33.804688 35.953125 -32.765625 C 36.398438 -31.734375 36.625 -30.546875 36.625 -29.203125 L 36.625 -29.09375 C 36.625 -26.863281 36.046875 -25.039062 34.890625 -23.625 C 33.734375 -22.21875 32.300781 -21.144531 30.59375 -20.40625 C 32.9375 -19.625 34.8125 -18.5 36.21875 -17.03125 C 37.632812 -15.5625 38.34375 -13.507812 38.34375 -10.875 L 38.34375 -10.75 C 38.34375 -7.40625 37.039062 -4.773438 34.4375 -2.859375 C 31.84375 -0.953125 28.222656 0 23.578125 0 Z M 25.96875 -26.859375 L 25.96875 -26.96875 C 25.96875 -28.050781 25.550781 -28.878906 24.71875 -29.453125 C 23.882812 -30.023438 22.664062 -30.3125 21.0625 -30.3125 L 13.984375 -30.3125 L 13.984375 -23.46875 L 20.78125 -23.46875 C 22.414062 -23.46875 23.6875 -23.742188 24.59375 -24.296875 C 25.507812 -24.859375 25.96875 -25.710938 25.96875 -26.859375 Z M 27.53125 -12.375 C 27.53125 -13.414062 27.101562 -14.257812 26.25 -14.90625 C 25.394531 -15.5625 24.054688 -15.890625 22.234375 -15.890625 L 13.984375 -15.890625 L 13.984375 -8.6875 L 22.34375 -8.6875 C 24.019531 -8.6875 25.300781 -8.992188 26.1875 -9.609375 C 27.082031 -10.222656 27.53125 -11.109375 27.53125 -12.265625 Z M 27.53125 -12.375 "/></g></g></g><g fill="#000000" fill-opacity="1"><g transform="translate(212.996382, 228.216415)"><g><path d="M 3.453125 0 L 3.453125 -39.015625 L 34.828125 -39.015625 L 34.828125 -29.875 L 14.15625 -29.875 L 14.15625 -23.90625 L 32.890625 -23.90625 L 32.890625 -15.375 L 14.15625 -15.375 L 14.15625 -9.203125 L 35.109375 -9.203125 L 35.109375 0 Z M 3.453125 0 "/></g></g></g><g fill="#000000" fill-opacity="1"><g transform="translate(250.22576, 228.216415)"><g><path d="M 18.78125 0.671875 C 15.320312 0.671875 12.015625 0.125 8.859375 -0.96875 C 5.703125 -2.070312 2.914062 -3.679688 0.5 -5.796875 L 6.515625 -12.984375 C 8.453125 -11.460938 10.488281 -10.300781 12.625 -9.5 C 14.757812 -8.695312 16.941406 -8.296875 19.171875 -8.296875 C 20.660156 -8.296875 21.785156 -8.535156 22.546875 -9.015625 C 23.304688 -9.503906 23.6875 -10.160156 23.6875 -10.984375 L 23.6875 -11.09375 C 23.6875 -11.90625 23.25 -12.582031 22.375 -13.125 C 21.5 -13.664062 19.726562 -14.25 17.0625 -14.875 C 14.976562 -15.363281 13.035156 -15.894531 11.234375 -16.46875 C 9.429688 -17.039062 7.878906 -17.78125 6.578125 -18.6875 C 5.273438 -19.601562 4.242188 -20.738281 3.484375 -22.09375 C 2.722656 -23.457031 2.34375 -25.125 2.34375 -27.09375 L 2.34375 -27.203125 C 2.34375 -29.015625 2.691406 -30.679688 3.390625 -32.203125 C 4.097656 -33.734375 5.09375 -35.046875 6.375 -36.140625 C 7.65625 -37.234375 9.234375 -38.097656 11.109375 -38.734375 C 12.992188 -39.367188 15.101562 -39.6875 17.4375 -39.6875 C 20.75 -39.6875 23.722656 -39.25 26.359375 -38.375 C 28.992188 -37.5 31.375 -36.207031 33.5 -34.5 L 28.09375 -26.859375 C 26.3125 -28.128906 24.472656 -29.085938 22.578125 -29.734375 C 20.679688 -30.378906 18.878906 -30.703125 17.171875 -30.703125 C 15.867188 -30.703125 14.890625 -30.460938 14.234375 -29.984375 C 13.585938 -29.503906 13.265625 -28.910156 13.265625 -28.203125 L 13.265625 -28.09375 C 13.265625 -27.195312 13.71875 -26.488281 14.625 -25.96875 C 15.539062 -25.445312 17.351562 -24.890625 20.0625 -24.296875 C 24.488281 -23.328125 28.007812 -21.96875 30.625 -20.21875 C 33.25 -18.476562 34.5625 -15.789062 34.5625 -12.15625 L 34.5625 -12.03125 C 34.5625 -10.0625 34.175781 -8.285156 33.40625 -6.703125 C 32.644531 -5.128906 31.578125 -3.796875 30.203125 -2.703125 C 28.828125 -1.609375 27.164062 -0.769531 25.21875 -0.1875 C 23.269531 0.382812 21.125 0.671875 18.78125 0.671875 Z M 18.78125 0.671875 "/></g></g></g></svg>